<svg xmlns="http://www.w3.org/2000/svg" viewBox="0 0 29.75 39"><defs><style>.cls-1{fill:#f48020;}</style></defs><g id="Capa_2" data-name="Capa 2"><g id="Capa_1-2" data-name="Capa 1"><path class="cls-1" d="M15.71,0a18.69,18.69,0,0,1,2.73.63,10.52,10.52,0,0,1,7.11,9.11,11.19,11.19,0,0,0,.2,2.08,2.1,2.1,0,0,1,.12.7c-.1,2.07-.32,4.12-.28,6.19a.82.82,0,0,1-.56.78,14.8,14.8,0,0,1-3.81.31.31.31,0,0,0-.16.06c-.64.55-1.26,1.12-1.87,1.69a.58.58,0,0,0-.2.33c0,.65,0,1.31,0,2,1.4.41,2.76.81,4.14,1.25.26.08.51.17.76.27,2.82,1.19,5.33,2.7,5.84,6.11a3.25,3.25,0,0,1,0,.44v6.71a.35.35,0,0,1-.35.34H10c-.55,0-.9-.29-.91-.75s.35-.77.92-.77H11.4l.11,0c.2-.88.41-1.78.62-2.67s.39-1.63.54-2.45a.82.82,0,0,0,0-.27c-.18-.83-.41-1.63-.64-2.51l-1.23.8a.33.33,0,0,1-.48-.13c-.69-1.31-1.36-2.63-2.06-4l-.64.2A14.78,14.78,0,0,0,4,28.1a5,5,0,0,0-2.43,4.54c0,1.45,0,2.92,0,4.38v.46H2.88c.56,0,.89.28.89.76s-.33.76-.89.76C2,39,1.17,39,.32,39A.31.31,0,0,1,0,38.68c0-2.16,0-4.31,0-6.47A6.3,6.3,0,0,1,3,26.9a18.36,18.36,0,0,1,5.07-2.22q1.29-.39,2.61-.75a.15.15,0,0,0,.11-.16c0-.66,0-1.31,0-2a.21.21,0,0,0-.09-.18,7.57,7.57,0,0,1-3.3-4.57c-.07-.29-.21-.34-.47-.34A2.71,2.71,0,0,1,4,14.65a9.26,9.26,0,0,1,0-2,11.66,11.66,0,0,0,.1-2.36,2.93,2.93,0,0,1,0-1.38Q6.44,1,13.74.06c.1,0,.2,0,.3-.06ZM19,19H15.15a1.94,1.94,0,0,1-.49-.05.74.74,0,0,1,.11-1.46,2.81,2.81,0,0,1,.41,0c1.58,0,3.15,0,4.73,0a.55.55,0,0,0,.51-.36,12.12,12.12,0,0,0,.46-1.22A16.7,16.7,0,0,0,21.07,12a.42.42,0,0,0-.18-.26c-.69-.42-1.37-.86-2.08-1.25a3.1,3.1,0,0,0-2.66-.12L15,10.83a18.25,18.25,0,0,1-4.52,1.29c-.6.07-1.2.09-1.83.13,0,.81,0,1.61,0,2.41a6,6,0,0,0,2.13,4.39A6.19,6.19,0,0,0,19,19Zm2.54,6.77c-.6,1.17-1.17,2.3-1.76,3.43a.9.9,0,0,1-1.32.34l-.67-.44c-.75,2.45-.75,2.45-.28,4.56,0,.1.05.2.07.29.23,1,.47,2,.7,3h10c0-1.77,0-3.5,0-5.24a4.64,4.64,0,0,0-1.87-3.71A14.14,14.14,0,0,0,21.5,25.77Zm-.44-15.3c0-.15,0-.24,0-.33a6.21,6.21,0,0,0-12.4.67c0,.24.1.32.32.29a13.73,13.73,0,0,0,2.33-.26,42.92,42.92,0,0,0,4.14-1.41,4.84,4.84,0,0,1,4.48.37ZM7.14,10a7.76,7.76,0,0,1,15.48,0l1.44.17a9,9,0,0,0-4.62-7.78,8.84,8.84,0,0,0-9.69.36,9,9,0,0,0-4.1,7.42Zm9.53,27c-.33-1.47-.66-2.92-1-4.36,0-.08-.17-.16-.27-.17-.34,0-.69,0-1,0a.28.28,0,0,0-.33.26c-.12.59-.26,1.17-.39,1.75-.19.83-.38,1.67-.58,2.53ZM12.3,22.07c0,.52,0,1,0,1.43a.47.47,0,0,0,.19.29c.72.5,1.45,1,2.18,1.46a.45.45,0,0,0,.39,0c.74-.47,1.46-1,2.18-1.46.08-.06.19-.16.2-.25,0-.47,0-.95,0-1.48A8,8,0,0,1,12.3,22.07Zm2.55,9a3.53,3.53,0,0,1,.46,0c.29.05.39-.09.46-.36.17-.72.38-1.44.55-2.17a.39.39,0,0,0-.12-.36,12.49,12.49,0,0,0-1.13-.77.47.47,0,0,0-.4,0c-.38.23-.73.51-1.11.74-.19.11-.2.24-.14.43.16.58.31,1.15.46,1.73C14.08,31,14.08,31,14.85,31ZM11.05,28l2.46-1.66-2-1.32a.29.29,0,0,0-.21-.06l-1.6.48Zm9-2.56L18.48,25a.3.3,0,0,0-.21,0l-2,1.36L18.7,28ZM7.53,11.59c-1.06-.17-1.69.35-1.69,1.37v.5a1.29,1.29,0,0,0,1.69,1.32Zm14.74.09.43,3.12a1.25,1.25,0,0,0,1.51-1.36,5.42,5.42,0,0,0,0-.57A1.3,1.3,0,0,0,22.27,11.68ZM22,17.87c.53,0,1,0,1.53,0a.57.57,0,0,0,.56-.61c0-.35,0-.7,0-1l-1.63.16Z"/></g></g></svg>