<svg xmlns="http://www.w3.org/2000/svg" viewBox="0 0 37.1 37.05"><defs><style>.cls-1{fill:#f48020;}</style></defs><g id="Capa_2" data-name="Capa 2"><g id="Capa_1-2" data-name="Capa 1"><path class="cls-1" d="M37.1,9.16V37.05H.51a1,1,0,0,1-.51-1Q0,22.87,0,9.66a1,1,0,0,1,.63-1Q9.32,4.42,18,.15a1.2,1.2,0,0,1,1.16,0L36.37,8.61A4.65,4.65,0,0,1,37.1,9.16ZM4.39,15.25V35.58H6.91V27.11c0-.72.25-1,1-1H12c.33,0,.43-.08.43-.42,0-2.7,0-5.41,0-8.11,0-.7.23-.93.94-.93H23.71c.81,0,1,.2,1,1,0,2.69,0,5.39,0,8.08,0,.3.09.38.39.38h4.05c.81,0,1,.23,1,1v8.4h2.53V15.25ZM2.91,35.6V11.92c0-.84.21-1.05,1-1.05H33.15c.84,0,1,.21,1,1.05V35.59h1.46v-.34q0-12.53,0-25.07a.47.47,0,0,0-.33-.48q-8.23-4-16.46-8.07a.62.62,0,0,0-.63,0L1.77,9.7a.49.49,0,0,0-.32.52q0,12.5,0,25v.39Zm14.9,0v-8H15.65V28c0,.79,0,1.57,0,2.36a.75.75,0,0,1-.83.86H11.4c-.57,0-.83-.27-.84-.85,0-.8,0-1.59,0-2.39,0-.13,0-.25,0-.37H8.39v8Zm8.73-8c0,1,0,1.9,0,2.83a.7.7,0,0,1-.78.79q-1.76,0-3.51,0a.73.73,0,0,1-.79-.8c0-.81,0-1.61,0-2.42v-.39H19.29v8h9.42v-8Zm-5.45-9.45c0,1,0,1.89,0,2.81a.7.7,0,0,1-.71.8c-1.21,0-2.43,0-3.65,0A.69.69,0,0,1,16,21c0-.59,0-1.19,0-1.78V18.16H13.85v8h9.4V18.16Zm11.63-5.8H4.38v1.4H32.72ZM12,29.77h2.15V27.62H12Zm13.05,0V27.63H22.93v2.14Zm-7.6-9.47h2.15V18.16H17.47Z"/><path class="cls-1" d="M18.57,9.4a2.91,2.91,0,1,1,2.88-2.9A2.9,2.9,0,0,1,18.57,9.4Zm0-1.45A1.43,1.43,0,0,0,20,6.52a1.45,1.45,0,1,0-2.9,0A1.44,1.44,0,0,0,18.55,8Z"/></g></g></svg>