<svg xmlns="http://www.w3.org/2000/svg" viewBox="0 0 35.43 35.45"><defs><style>.cls-1{fill:#f48020;stroke:#f48020;stroke-miterlimit:10;stroke-width:0.5px;}</style></defs><g id="Capa_2" data-name="Capa 2"><g id="Capa_1-2" data-name="Capa 1"><path class="cls-1" d="M23.86,35.2l3.28-6,2.39-4.41-.32,0c-.9,0-1.79,0-2.69,0a.47.47,0,0,0-.47.29q-1.23,2.23-2.48,4.47a1.17,1.17,0,0,1-.28.37.57.57,0,0,1-.91-.5c0-.46,0-.91,0-1.37V24.91a2.91,2.91,0,0,0-3.07-3.09,3.32,3.32,0,0,0-1.38.05c-.37.19-.59.69-.87,1.06l-4.52,6c-.46.61-.83.61-1.27,0L6.38,22.09a.54.54,0,0,0-.52-.28c-.46,0-.91,0-1.37,0A2.93,2.93,0,0,0,1.41,24.9V35.2H.25V24.8a4.06,4.06,0,0,1,3.47-4.1,4.35,4.35,0,0,1,.81-.05H7.64A1.22,1.22,0,0,0,9,19.31a1.8,1.8,0,0,0-.77-1.79A5.45,5.45,0,0,1,6.07,13c0-.73,0-1.46,0-2.19a.8.8,0,0,1,.51-.8l9.52-4.47c.51-.24.77-.14,1,.36A4.8,4.8,0,0,1,17.68,8c0,1.92.08,3.84,0,5.76a5.26,5.26,0,0,1-2.43,4.1.75.75,0,0,0-.41.8c0,.22,0,.45,0,.68a1.21,1.21,0,0,0,1.36,1.34h3.1a6,6,0,0,1,.95.08,4,4,0,0,1,3.31,3.84c0,.8,0,1.6,0,2.51.1-.15.15-.21.19-.28l.93-1.66a7,7,0,0,0,.78-1.94,3.9,3.9,0,0,1,3.74-3.12c1.78,0,3.57,0,5.35,0a.77.77,0,0,1,.66.4v.69a.35.35,0,0,0,0,.08,4,4,0,0,1-4,3.48c-.23,0-.31.11-.41.28Q28,30,25.33,35c0,.08-.07.17-.11.25ZM16.29,6.7l-.4.17L13.55,8l-6,2.83c-.16.07-.32.13-.31.38,0,.74,0,1.48,0,2.21a4.65,4.65,0,0,0,9.28-.15c0-1.65,0-3.32,0-5A11.59,11.59,0,0,0,16.29,6.7ZM7.62,21.82c.51.71,1,1.37,1.45,2a.58.58,0,0,0,.55.29c1.37,0,2.75,0,4.12,0a1.47,1.47,0,0,0,1.52-.77,19,19,0,0,1,1.16-1.56h-.37a2.32,2.32,0,0,1-2.39-2.21,7.92,7.92,0,0,1,0-1,6.35,6.35,0,0,1-3.51,0,3.27,3.27,0,0,1-.45,2.22A2.48,2.48,0,0,1,7.62,21.82Zm26.31-.59c-1.55,0-3.09,0-4.62,0a3.15,3.15,0,0,0-1.27.33,2.72,2.72,0,0,0-1.51,2c1.63,0,3.22,0,4.8,0A2.8,2.8,0,0,0,33.93,21.23Zm-20.15,4.1H10.13l1.78,2.48Z"/><path class="cls-1" d="M35.18,9.34a3.28,3.28,0,0,1-.9,1.76,3.06,3.06,0,0,1-2.21.82c-.73,0-1.46,0-2.18,0a.82.82,0,0,0-.5.2c-.78.76-1.55,1.54-2.32,2.31-.06.07-.13.13-.19.19a.54.54,0,0,1-.66.13.9.9,0,0,1-.34-.54c0-.59,0-1.18,0-1.77V12c-.5,0-1,0-1.47-.08a2.81,2.81,0,0,1-2.57-2.64c-.05-1.36,0-2.72,0-4.09,0-.68,0-1.36,0-2A2.86,2.86,0,0,1,24.69.28c2.54,0,5.07,0,7.61,0A2.86,2.86,0,0,1,35.13,2.7a.75.75,0,0,0,0,.16ZM27,12.72l.09,0,1.68-1.69a1,1,0,0,1,.75-.31h2.56A1.77,1.77,0,0,0,34,8.83V3.34A1.78,1.78,0,0,0,32.1,1.43H28.76c-1.33,0-2.66,0-4,0A1.71,1.71,0,0,0,23,3.17c0,2,0,3.91,0,5.87a1.67,1.67,0,0,0,1.55,1.68c.56,0,1.12,0,1.67,0s.84.17.84.86Z"/><path class="cls-1" d="M4.28,35.2c0-.48,0-1,0-1.43a.72.72,0,0,0-.13-.3,6,6,0,0,1,.3-7l.06,0,.88.56a16.3,16.3,0,0,0-.86,1.87A4.22,4.22,0,0,0,5,32.6a2.47,2.47,0,0,1,.45,1.55,9.2,9.2,0,0,0,0,1.05Z"/><path class="cls-1" d="M18.33,35.2c0-.11,0-.23,0-.34a4.35,4.35,0,0,1,.56-2.51,4.36,4.36,0,0,0-.21-4.75L18.32,27l1-.62a6.28,6.28,0,0,1,1.31,3.23,5.84,5.84,0,0,1-1,3.87.61.61,0,0,0-.09.35c0,.44,0,.89,0,1.33Z"/><path class="cls-1" d="M16,19.45V18.34l.65,0a2.91,2.91,0,0,0,2.83-3c0-2.26.07-4.53-.05-6.79a7.07,7.07,0,0,0-4.08-6.25A7.5,7.5,0,0,0,5,6a7.27,7.27,0,0,0-.64,3.08c0,2.08,0,4.16,0,6.24a2.88,2.88,0,0,0,2.26,2.94,9.36,9.36,0,0,0,1.21.12v1.1a4.08,4.08,0,0,1-4.55-3.23,4.45,4.45,0,0,1-.08-.81c0-2.28-.07-4.56,0-6.82A8.28,8.28,0,0,1,7.84,1.3,8.54,8.54,0,0,1,17.93,2.71a8.09,8.09,0,0,1,2.65,5.74c.08,2.31.08,4.63,0,7a4.08,4.08,0,0,1-4.48,4.08Z"/><path class="cls-1" d="M24.72,6.66V5.54h7.52V6.66Z"/><path class="cls-1" d="M24.71,9V7.86h4V9Z"/><path class="cls-1" d="M24.72,4.33V3.21h4V4.33Z"/><path class="cls-1" d="M32.24,4.33H30V3.21h2.28Z"/></g></g></svg>