<svg xmlns="http://www.w3.org/2000/svg" viewBox="0 0 47.56 34.91"><defs><style>.cls-1{fill:#f48020;stroke:#f48020;stroke-miterlimit:10;stroke-width:0.5px;}</style></defs><g id="Capa_2" data-name="Capa 2"><g id="Capa_1-2" data-name="Capa 1"><path class="cls-1" d="M5.1,11.26c-.54,0-1.07,0-1.6,0s-.76.27-.77.67a.68.68,0,0,0,.75.69q1.61,0,3.21,0A.67.67,0,0,0,7.45,12c0-.43-.27-.68-.79-.69S5.62,11.25,5.1,11.26Z"/><path class="cls-1" d="M.25,6.24a1,1,0,0,1,1-.51H8.83c.36,0,.5-.09.53-.47.1-1.39.25-2.78.38-4.16.07-.66.29-.86.95-.86H18.5c.42,0,.78.07.89.54s-.24.84-.87.84H11.08l-.39,4.11h6.72a4.26,4.26,0,0,1,.5,0,.61.61,0,0,1,.57.66.61.61,0,0,1-.57.66,2.85,2.85,0,0,1-.5,0H10.55l-.84,8.7.51,0h3.54a2.55,2.55,0,0,1,.55,0,.67.67,0,0,1,0,1.29,2.41,2.41,0,0,1-.54.05H10c-.31,0-.42.08-.44.4-.1,1.22-.23,2.44-.35,3.7h24c.57-6.56,1.14-13.1,1.72-19.7h-13a2.32,2.32,0,0,1-.59,0,.61.61,0,0,1-.48-.69A.63.63,0,0,1,21.4.27a2.33,2.33,0,0,1,.46,0H35.28c.87,0,1.07.25,1,1.12-.29,3.27-.58,6.53-.87,9.85l.56,0c1.28.05,2.58,0,3.85.15A8.94,8.94,0,0,1,47,17.73a12,12,0,0,1,.24,4.42c-.24,2.39-.53,4.78-.8,7.17-.06.58-.27.78-.86.78-.82,0-1.65,0-2.48,0-.35,0-.46.12-.54.44a5.21,5.21,0,0,1-10.16.12c-.1-.47-.28-.57-.72-.56h-10c-.4,0-.54.12-.63.51a5.2,5.2,0,0,1-10.15,0c-.09-.4-.25-.52-.64-.5-.8,0-1.59,0-2.39,0-.64,0-.89-.28-.83-.92L8,18.84c.05-.51.1-1,.15-1.61H6.5c-.22,0-.43,0-.65,0a.65.65,0,0,1-.66-.68.63.63,0,0,1,.67-.67c.61,0,1.22,0,1.84,0h.62l.85-8.73H1.28a1,1,0,0,1-1-.52ZM34.84,18.08c0,.28-.08.44-.09.61l-.27,3.06c-.08.88-.21,1-1.12,1H16c-2.15,0-4.3,0-6.44,0-.43,0-.54.14-.56.54-.05.81-.15,1.62-.23,2.42-.09,1-.19,2-.28,3H9.61c.36,0,.8.1,1.07-.06s.22-.6.33-.91a5.29,5.29,0,0,1,5.31-3.58,5.23,5.23,0,0,1,4.74,4.08c.08.36.21.49.6.49,3.37,0,6.75,0,10.12,0l.45,0c.57-2.61,2.13-4.3,4.79-4.48C40.14,24,42,25.76,42.69,28.7h2.44c.21-1.93.42-3.83.63-5.74,0-.24-.09-.31-.29-.36a3.73,3.73,0,0,1-1.9-1.05c-.61-.61-1.19-1.24-1.78-1.87a3.71,3.71,0,0,0-2.18-1.35C38,18.16,36.44,18.16,34.84,18.08Zm11,3.2a7.43,7.43,0,0,0-6.37-8.48l-.35,4,.16.07.22.05a5,5,0,0,1,2.72,1.33c.61.57,1.14,1.2,1.71,1.8A3.72,3.72,0,0,0,45.85,21.28Zm-26,8.12A3.87,3.87,0,1,0,16,33.28,3.89,3.89,0,0,0,19.84,29.4Zm13.76.21a3.86,3.86,0,1,0,7.68-.74,3.94,3.94,0,0,0-4.09-3.31A3.86,3.86,0,0,0,33.6,29.61Zm1.32-12.87h2.83l.34-4.08h-2.8Z"/><path class="cls-1" d="M5.1,11.26c.52,0,1,0,1.56,0s.79.26.79.69a.67.67,0,0,1-.76.67q-1.61,0-3.21,0a.68.68,0,0,1-.75-.69c0-.4.28-.65.77-.67S4.56,11.26,5.1,11.26Z"/><path class="cls-1" d="M16,32.34h0a2.93,2.93,0,0,1,0-5.85h0a2.93,2.93,0,0,1,2.92,2.89,2.94,2.94,0,0,1-2.92,3Zm0-5v.8a1.31,1.31,0,0,0,0,2.62h0a1.31,1.31,0,0,0,1.3-1.32A1.3,1.3,0,0,0,16,28.1h0Z"/><path class="cls-1" d="M37.45,32.33h0a2.92,2.92,0,0,1,0-5.84v0h0a2.93,2.93,0,0,1,2.92,2.89,2.92,2.92,0,0,1-2.92,2.95Zm0-4.23h0a1.31,1.31,0,0,0,0,2.62h0a1.31,1.31,0,0,0,1.3-1.32A1.29,1.29,0,0,0,37.45,28.1Z"/></g></g></svg>