<svg xmlns="http://www.w3.org/2000/svg" viewBox="0 0 29.58 38.35"><defs><style>.cls-1{fill:#f48020;stroke:#f48020;stroke-miterlimit:10;stroke-width:0.5px;}</style></defs><g id="Capa_2" data-name="Capa 2"><g id="Capa_1-2" data-name="Capa 1"><path class="cls-1" d="M7.32,38.1a2.78,2.78,0,0,1-.42-.69c-.3-1.27-.56-2.55-.84-3.82,0-.11,0-.21-.09-.35l-3.16.9c-.35.09-.69.18-1,.29a.61.61,0,0,1-.73-1l5-8.29.33-.56c-.29-.07-.54-.14-.79-.19a4.13,4.13,0,0,1-3.28-4.55,3.29,3.29,0,0,0-.89-2.78,4.09,4.09,0,0,1,0-5.66,3.36,3.36,0,0,0,.9-2.81A4.11,4.11,0,0,1,5.55,4.12,3.4,3.4,0,0,0,8,2.35,4.07,4.07,0,0,1,13.26.63a3.53,3.53,0,0,0,3.09,0,4.08,4.08,0,0,1,5.22,1.69,3.32,3.32,0,0,0,1.51,1.52,6.11,6.11,0,0,0,1,.28A4.15,4.15,0,0,1,27.3,8.64a3.36,3.36,0,0,0,.89,2.81,4.1,4.1,0,0,1,0,5.69,3.28,3.28,0,0,0-.88,2.75A4.1,4.1,0,0,1,24,24.43l-.79.2.25.43c1.66,2.77,3.33,5.55,5,8.33a1,1,0,0,1,.2.57c0,.39-.39.6-.82.48L24,33.34l-.38-.09c-.22,1-.45,2-.67,3a8.62,8.62,0,0,1-.25,1.12,3.11,3.11,0,0,1-.42.69h-.36a3.74,3.74,0,0,1-.47-.51q-2.91-4.83-5.8-9.67a1.05,1.05,0,0,0-1.66,0c-1.93,3.21-3.85,6.43-5.79,9.64a4,4,0,0,1-.48.54Zm10.48-11a3.09,3.09,0,0,0,2.75-1.46,8.48,8.48,0,0,1,.51-.81,4.5,4.5,0,0,1,2.82-1.61,2.89,2.89,0,0,0,2.25-3.15,4.41,4.41,0,0,1,1.18-3.77,2.92,2.92,0,0,0,0-4.11,4.31,4.31,0,0,1-1.17-3.63,2.93,2.93,0,0,0-2.38-3.31A4.4,4.4,0,0,1,20.58,3a2.91,2.91,0,0,0-3.82-1.24,4.43,4.43,0,0,1-4,0A2.89,2.89,0,0,0,9,2.94,4.45,4.45,0,0,1,5.82,5.28,2.91,2.91,0,0,0,3.46,8.59a4.23,4.23,0,0,1-1.14,3.57,2.94,2.94,0,0,0,0,4.19A4.32,4.32,0,0,1,3.46,20a2.94,2.94,0,0,0,2.39,3.34A4.38,4.38,0,0,1,9,25.57a2.92,2.92,0,0,0,3.85,1.26,4.34,4.34,0,0,1,3.91,0A5.91,5.91,0,0,0,17.8,27.12ZM7.35,25.27,2.78,32.9l.44-.11,3-.84a.59.59,0,0,1,.82.49c.08.35.15.7.23,1,.17.79.35,1.57.54,2.44l4.59-7.66a1.72,1.72,0,0,0-.23,0A4.17,4.17,0,0,1,7.86,26,8.24,8.24,0,0,0,7.35,25.27Zm14.87,0c-.24.36-.44.65-.62.95a4,4,0,0,1-2.79,2,13.53,13.53,0,0,1-1.58.1l4.55,7.6.11-.41.66-3a.6.6,0,0,1,.84-.52l1,.28,2.42.68Z"/><path class="cls-1" d="M14.77,23a8.7,8.7,0,1,1,8.73-8.67A8.73,8.73,0,0,1,14.77,23Zm0-1.18a7.52,7.52,0,1,0-7.53-7.53A7.54,7.54,0,0,0,14.79,21.8Z"/><path class="cls-1" d="M13.29,15.68c1.31-1.32,2.55-2.56,3.8-3.8a1.53,1.53,0,0,1,.29-.28.59.59,0,0,1,.83.79,1.31,1.31,0,0,1-.22.25l-4.1,4.1c-.44.44-.7.44-1.15,0s-.82-.81-1.22-1.23-.34-.65-.07-.9a.59.59,0,0,1,.9.08C12.67,15,13,15.33,13.29,15.68Z"/></g></g></svg>