<svg xmlns="http://www.w3.org/2000/svg" viewBox="0 0 29.45 29.45"><defs><style>.cls-1{fill:#fff;}</style></defs><g id="Capa_2" data-name="Capa 2"><g id="Capa_1-2" data-name="Capa 1"><path class="cls-1" d="M14.76,0A14.73,14.73,0,1,0,29.45,14.79,14.73,14.73,0,0,0,14.76,0Zm2,23.45a9.5,9.5,0,0,1-6-.78,1,1,0,0,0-.78-.05c-1.41.46-2.83.9-4.25,1.34l-.53.16c.41-1.2.73-2.33,1.19-3.4a3.08,3.08,0,0,0,0-2.68A9.09,9.09,0,0,1,13.7,5.4a9.16,9.16,0,0,1,3.1,18Z"/><path class="cls-1" d="M16.9,7A7.91,7.91,0,0,0,8.48,10a7.52,7.52,0,0,0-.12,8.65.72.72,0,0,1,.1.7c-.27.79-.53,1.59-.84,2.5,1-.29,1.84-.55,2.69-.83a.74.74,0,0,1,.66.07,7.86,7.86,0,0,0,4.5,1.06,7.74,7.74,0,0,0,7.28-8.71A7.9,7.9,0,0,0,16.9,7Zm2.39,11.14a2.22,2.22,0,0,1-2.05,1.13,4.77,4.77,0,0,1-2-.52,10.1,10.1,0,0,1-4.64-4.1A3.85,3.85,0,0,1,10,12.19a1.93,1.93,0,0,1,1.88-1.84.59.59,0,0,1,.58.39,5.07,5.07,0,0,0,.37.86c.47.79.57,1.51-.27,2.12-.24.18-.17.39,0,.62A6.39,6.39,0,0,0,15.67,17c.27.12.41,0,.59-.17.89-1,.9-1,2.18-.46l.32.14C19.67,16.9,19.76,17.2,19.29,18.09Z"/></g></g></svg>